<svg width="20" height="22" viewBox="0 0 20 22" fill="none" xmlns="http://www.w3.org/2000/svg">
<path d="M2.11524 21H5.83271C6.44865 21 6.94796 20.5007 6.94796 19.8848V15.8327C6.94796 15.2007 7.43123 14.7175 8.0632 14.7175H11.8922C12.5242 14.7175 13.0074 15.2007 13.0074 15.8327V19.8848C13.0074 20.5007 13.5067 21 14.1227 21H17.7286C18.3606 21 18.8439 20.5167 18.8439 19.8848V8.80669C18.8439 8.50929 18.7323 8.2119 18.5093 8.02602L10.7026 1.33457C10.2565 0.888476 9.55019 0.888476 9.14126 1.33457L1.33457 8.02602C1.11152 8.24907 1 8.50929 1 8.80669V19.8848C1 20.5167 1.48327 21 2.11524 21Z" stroke="#FAA633" stroke-width="1.25"/>
</svg>
