<svg width="106" height="106" viewBox="0 0 106 106" fill="none" xmlns="http://www.w3.org/2000/svg">
<circle cx="53" cy="53.1602" r="52.5" fill="#D9D7F9"/>
<path fill-rule="evenodd" clip-rule="evenodd" d="M65.9082 32.9831C64.9553 32.4526 65.253 30.2642 65.253 30.2642H53.1838H52.1763H40.1071C40.1071 30.2642 40.4049 32.4526 39.452 32.9831C38.4991 33.5134 34.9902 33.9567 34.9902 42.8935C34.9902 50.4899 35.2801 74.3522 35.3671 81.3391C35.3872 82.9561 35.9388 84.5296 36.9694 85.7756C37.4104 86.3085 37.9351 86.8402 38.5597 87.3324C40.8531 89.1394 43.0612 89.2851 52.7126 89.2812C62.3213 89.2773 64.5162 89.1312 66.8004 87.3324C67.381 86.8752 67.8752 86.3837 68.2958 85.8891C69.3768 84.618 69.9724 83.0053 69.9931 81.3369C70.0801 74.3475 70.37 50.4891 70.37 42.8935C70.37 33.9567 66.8611 33.5134 65.9082 32.9831Z" fill="white"/>
<path fill-rule="evenodd" clip-rule="evenodd" d="M67.0232 18.1929C67.0232 18.1929 67.422 16.7969 65.1286 16.7969H53.0948H52.2649H40.2311C37.9376 16.7969 38.3365 18.1929 38.3365 18.1929C36.4419 19.5889 37.439 30.2523 37.439 30.2523H52.2649H53.0948H67.9206C67.9206 30.2523 68.9178 19.5889 67.0232 18.1929Z" fill="#60579E"/>
<path fill-rule="evenodd" clip-rule="evenodd" d="M59.6565 19.5872H63.4291C63.9395 19.5872 64.3533 19.9246 64.3533 20.341V28.1008C64.3533 28.5172 63.9395 28.8546 63.4291 28.8546H59.6565C59.1462 28.8546 58.7324 28.5172 58.7324 28.1008V20.341C58.7324 19.9246 59.1462 19.5872 59.6565 19.5872Z" fill="#948EBE"/>
<path fill-rule="evenodd" clip-rule="evenodd" d="M69.6609 37.1424C68.5844 33.6988 66.5907 33.363 65.9082 32.9831C64.9552 32.4526 65.2529 30.2642 65.2529 30.2642H53.1838H52.1762H40.1071C40.1071 30.2642 40.4049 32.4526 39.452 32.9831C38.7695 33.363 36.7758 33.6988 35.6992 37.1424C36.4703 38.635 37.9121 40.8658 40.2323 41.4006C44.6863 42.4274 47.791 36.1462 54.2409 34.2121C57.2929 33.2967 62.2195 33.0173 69.6609 37.1424Z" fill="#F4F6FB"/>
<path fill-rule="evenodd" clip-rule="evenodd" d="M40.144 46.6792H66.0851L65.7987 77.6481H40.144V46.6792Z" fill="#D9D7F9"/>
<path fill-rule="evenodd" clip-rule="evenodd" d="M51.2284 19.5872H55.001C55.5113 19.5872 55.9251 19.9246 55.9251 20.341V28.1008C55.9251 28.5172 55.5113 28.8546 55.001 28.8546H51.2284C50.718 28.8546 50.3042 28.5172 50.3042 28.1008V20.341C50.3042 19.9246 50.718 19.5872 51.2284 19.5872Z" fill="#948EBE"/>
<path fill-rule="evenodd" clip-rule="evenodd" d="M42.7996 19.5872H46.5723C47.0826 19.5872 47.4963 19.9246 47.4963 20.341V28.1008C47.4963 28.5172 47.0826 28.8546 46.5723 28.8546H42.7996C42.2893 28.8546 41.8755 28.5172 41.8755 28.1008V20.341C41.8755 19.9246 42.2893 19.5872 42.7996 19.5872Z" fill="#948EBE"/>
<path fill-rule="evenodd" clip-rule="evenodd" d="M45.5499 59.1986V56.3752H45.5693L47.3705 59.1986H49.7461L49.746 59.1986H51.8199L53.1051 57.7187L54.3902 59.1986H56.7171L54.2247 56.492L56.2888 54.204H54.0008L53.1051 55.236L52.2094 54.204H49.9603L51.9854 56.492L49.6311 59.0487L47.4386 56.1902C48.4804 56.0052 49.0451 55.129 49.0451 54.1164C49.0451 52.5489 47.9449 51.8577 46.4943 51.8577H43.6416V59.1986H45.5499ZM49.6311 59.0487L49.493 59.1986H49.746L49.6311 59.0487ZM45.7638 55.1483L45.55 55.1484V53.318H45.735C46.3581 53.318 47.0591 53.4348 47.0591 54.2332C47.0591 55.0193 46.3795 55.1446 45.7638 55.1483Z" fill="#60579E"/>
</svg>
