<svg width="106" height="106" viewBox="0 0 106 106" fill="none" xmlns="http://www.w3.org/2000/svg">
<circle cx="53.333" cy="52.8853" r="52.5" fill="#D9D7F9"/>
<g clip-path="url(#clip0_1792_212752)">
<path d="M42.6496 81.5258C40.5525 81.5258 38.8457 79.8191 38.8457 77.7219V28.5712C38.8457 26.4741 40.5525 24.7673 42.6496 24.7673H64.1051L64.1639 24.7604H64.2019C66.6376 24.7604 67.8745 26.1009 67.8745 28.7371V32.2162L67.7881 43.6695V77.7219C67.7881 79.8191 66.0814 81.5258 63.9842 81.5258H42.6496Z" fill="white"/>
<path d="M64.2747 27.5313C64.5339 27.5451 64.8345 27.6211 64.9657 27.6902C65.0037 27.7835 65.1108 28.091 65.1108 28.744V32.2025L65.0245 43.6557V43.6765V43.6972V77.7289C65.0245 78.3024 64.5581 78.7688 63.9845 78.7688H42.65C42.0764 78.7688 41.61 78.3024 41.61 77.7289V28.5713C41.61 27.9977 42.0764 27.5313 42.65 27.5313H63.9845L64.0053 27.5624L64.2747 27.5279M64.2022 21.9999C64.0605 21.9999 63.9845 22.0068 63.9845 22.0068H42.65C39.0222 22.0068 36.082 24.9435 36.082 28.5713V77.7219C36.082 81.3497 39.0222 84.2899 42.65 84.2899H63.9845C67.6123 84.2899 70.5525 81.3497 70.5525 77.7219V43.6938L70.6388 32.2197V28.7406C70.6388 22.3454 65.3527 21.9999 64.2022 21.9999Z" fill="#422E83"/>
<path d="M67.8747 31.4388V28.9996C67.8747 27.5382 67.4497 26.4153 66.6136 25.6586C65.4873 24.6394 64.012 24.6878 63.7356 24.7085H42.9538C40.6805 24.7085 38.832 26.5811 38.832 28.8822V77.4213C38.832 79.7223 40.6805 81.5949 42.9538 81.5949H63.7632C66.0366 81.5949 67.885 79.7223 67.885 77.4213V31.4388H67.8747Z" fill="#D9D7F9"/>
<path d="M53.3606 71.2749C51.2876 71.2749 49.6016 72.9609 49.6016 75.0305C49.6016 77.1 51.2876 78.7895 53.3606 78.7895C55.4336 78.7895 57.1162 77.1035 57.1162 75.0305C57.1162 72.9575 55.4301 71.2749 53.3606 71.2749ZM53.3606 77.3971C52.0546 77.3971 50.9939 76.3365 50.9939 75.0305C50.9939 73.7245 52.0546 72.6638 53.3606 72.6638C54.6666 72.6638 55.7273 73.7245 55.7273 75.0305C55.7273 76.3365 54.6666 77.3971 53.3606 77.3971Z" fill="white"/>
<path d="M53.3606 71.2749C51.2876 71.2749 49.6016 72.9609 49.6016 75.0305C49.6016 77.1 51.2876 78.7895 53.3606 78.7895C55.4336 78.7895 57.1162 77.1035 57.1162 75.0305C57.1162 72.9575 55.4301 71.2749 53.3606 71.2749ZM53.3606 77.3971C52.0546 77.3971 50.9939 76.3365 50.9939 75.0305C50.9939 73.7245 52.0546 72.6638 53.3606 72.6638C54.6666 72.6638 55.7273 73.7245 55.7273 75.0305C55.7273 76.3365 54.6666 77.3971 53.3606 77.3971Z" fill="#422E83"/>
<path d="M67.8889 64.4685V31.4388H67.8786V28.9996C67.8786 27.5382 67.4536 26.4153 66.6175 25.6586C65.4912 24.6394 64.0159 24.6878 63.7395 24.7085H42.9577C40.6844 24.7085 38.8359 26.5811 38.8359 28.8822V35.4155L67.8924 64.472L67.8889 64.4685Z" fill="white"/>
<path d="M81.3041 39.1332C81.1556 39.0295 80.9794 38.9742 80.7997 38.9742C80.5095 38.9742 80.2365 39.1159 80.0741 39.3543C79.9394 39.5478 79.8876 39.7827 79.929 40.0177C79.9705 40.2491 80.1018 40.453 80.2953 40.5877C80.3678 40.6395 87.9515 45.981 87.9515 57.22C87.9515 68.4591 80.6857 72.5084 80.3747 72.6846C79.9429 72.923 79.7874 73.4654 80.0258 73.8904C80.1813 74.1702 80.4784 74.3464 80.7997 74.3464C80.9517 74.3464 81.0934 74.3084 81.2281 74.2359C81.5736 74.0424 89.717 69.3678 89.717 57.2235C89.717 45.0792 81.6462 39.3785 81.3007 39.1401L81.3041 39.1332Z" fill="#422E83"/>
<path d="M80.1498 48.7622C79.0165 46.9207 77.8522 46.0017 77.8384 45.9913C77.6794 45.8635 77.4894 45.7979 77.289 45.7979C77.0161 45.7979 76.7639 45.9222 76.5946 46.133C76.4495 46.3196 76.3838 46.5476 76.4115 46.7825C76.4391 47.0175 76.5566 47.2282 76.7431 47.3733C76.7811 47.4044 80.6058 50.4932 80.6058 56.9851C80.6058 63.477 76.985 65.7677 76.833 65.8713C76.6188 66.0061 76.4806 66.203 76.4287 66.431C76.3769 66.6591 76.4184 66.8975 76.5427 67.0979C76.7051 67.357 76.985 67.509 77.2925 67.509C77.4583 67.509 77.6207 67.4606 77.7624 67.3708C77.9489 67.2533 82.3748 64.365 82.3748 56.9817C82.3748 53.9171 81.625 51.1496 80.1498 48.7553V48.7622Z" fill="#422E83"/>
<path d="M26.4252 72.7295C26.3492 72.6742 18.769 67.2741 18.769 56.0972C18.769 44.9203 26.0348 40.8089 26.3423 40.6327C26.5565 40.5152 26.7051 40.3252 26.7707 40.1006C26.8364 39.8726 26.8087 39.6342 26.6947 39.4269C26.5392 39.147 26.2421 38.9708 25.9208 38.9708C25.7688 38.9708 25.6271 39.0088 25.4924 39.0814C25.1469 39.2749 17 43.9322 17 56.0938C17 68.2553 25.0743 73.9388 25.4164 74.1772C25.5649 74.2808 25.7377 74.3361 25.9173 74.3361C26.2075 74.3361 26.4805 74.1944 26.6463 73.9561C26.9227 73.5553 26.826 73.0025 26.4252 72.7261V72.7295Z" fill="#422E83"/>
<path d="M30.1807 46.2124C30.0183 45.9533 29.7384 45.8013 29.4309 45.8013C29.2651 45.8013 29.1027 45.8496 28.961 45.9395C28.771 46.0569 24.3486 48.9246 24.3486 56.3286C24.3486 63.7327 28.6985 67.1807 28.885 67.3259C29.0854 67.4848 29.2927 67.5159 29.4309 67.5159C29.7039 67.5159 29.9561 67.3915 30.1254 67.1773C30.426 66.7938 30.3603 66.2375 29.9803 65.9369C29.9492 65.9128 26.1176 62.8862 26.1176 56.3252C26.1176 53.7477 26.7395 51.4225 27.9107 49.5948C28.8056 48.2059 29.7142 47.5564 29.887 47.4389L29.8939 47.432H29.9008C30.1012 47.3007 30.2394 47.1038 30.2912 46.8758C30.343 46.6477 30.3016 46.4093 30.1772 46.209L30.1807 46.2124Z" fill="#422E83"/>
</g>
<defs>
<clipPath id="clip0_1792_212752">
<rect width="72.7206" height="62.29" fill="white" transform="translate(17 21.9999)"/>
</clipPath>
</defs>
</svg>
