<svg width="106" height="106" viewBox="0 0 106 106" fill="none" xmlns="http://www.w3.org/2000/svg">
<circle cx="53.4155" cy="53.1741" r="52.5" fill="#422E83"/>
<g clip-path="url(#clip0_1819_250082)">
<path d="M42.7317 81.8148C40.6345 81.8148 38.9277 80.108 38.9277 78.0108V28.8602C38.9277 26.763 40.6345 25.0562 42.7317 25.0562H64.1872L64.2459 25.0493H64.2839C66.7197 25.0493 67.9566 26.3899 67.9566 29.026V32.5052L67.8702 43.9585V78.0108C67.8702 80.108 66.1634 81.8148 64.0662 81.8148H42.7317Z" fill="#948EBE"/>
<path d="M64.3563 27.8203C64.6154 27.8341 64.916 27.9101 65.0473 27.9792C65.0853 28.0725 65.1924 28.38 65.1924 29.033V32.4914L65.106 43.9447V43.9654V43.9861V78.0178C65.106 78.5913 64.6396 79.0577 64.0661 79.0577H42.7315C42.158 79.0577 41.6916 78.5913 41.6916 78.0178V28.8602C41.6916 28.2867 42.158 27.8203 42.7315 27.8203H64.0661L64.0868 27.8514L64.3563 27.8168M64.2837 22.2888C64.1421 22.2888 64.0661 22.2957 64.0661 22.2957H42.7315C39.1038 22.2957 36.1636 25.2325 36.1636 28.8602V78.0109C36.1636 81.6386 39.1038 84.5788 42.7315 84.5788H64.0661C67.6938 84.5788 70.634 81.6386 70.634 78.0109V43.9827L70.7204 32.5087V29.0295C70.7204 22.6343 65.4342 22.2888 64.2837 22.2888Z" fill="white"/>
<path d="M67.9567 31.7279V29.2887C67.9567 27.8272 67.5317 26.7044 66.6956 25.9477C65.5693 24.9285 64.094 24.9769 63.8176 24.9976H43.0359C40.7625 24.9976 38.9141 26.8702 38.9141 29.1712V77.7104C38.9141 80.0114 40.7625 81.884 43.0359 81.884H63.8453C66.1186 81.884 67.9671 80.0114 67.9671 77.7104V31.7279H67.9567Z" fill="#422E83"/>
<path d="M53.4421 71.564C51.3691 71.564 49.6831 73.25 49.6831 75.3195C49.6831 77.3891 51.3691 79.0786 53.4421 79.0786C55.5151 79.0786 57.1977 77.3925 57.1977 75.3195C57.1977 73.2465 55.5117 71.564 53.4421 71.564ZM53.4421 77.6862C52.1361 77.6862 51.0755 76.6255 51.0755 75.3195C51.0755 74.0136 52.1361 72.9529 53.4421 72.9529C54.7481 72.9529 55.8088 74.0136 55.8088 75.3195C55.8088 76.6255 54.7481 77.6862 53.4421 77.6862Z" fill="#948EBE"/>
<path d="M53.4421 71.564C51.3691 71.564 49.6831 73.25 49.6831 75.3195C49.6831 77.3891 51.3691 79.0786 53.4421 79.0786C55.5151 79.0786 57.1977 77.3925 57.1977 75.3195C57.1977 73.2465 55.5117 71.564 53.4421 71.564ZM53.4421 77.6862C52.1361 77.6862 51.0755 76.6255 51.0755 75.3195C51.0755 74.0136 52.1361 72.9529 53.4421 72.9529C54.7481 72.9529 55.8088 74.0136 55.8088 75.3195C55.8088 76.6255 54.7481 77.6862 53.4421 77.6862Z" fill="white"/>
<path d="M67.9705 64.7576V31.7279H67.9601V29.2887C67.9601 27.8272 67.5352 26.7044 66.699 25.9477C65.5727 24.9285 64.0974 24.9769 63.821 24.9976H43.0393C40.7659 24.9976 38.9175 26.8702 38.9175 29.1712V35.7046L67.9739 64.7611L67.9705 64.7576Z" fill="#948EBE"/>
</g>
<path d="M46.8521 35.6741C51.6736 35.6741 55.5825 39.583 55.5825 44.4045C55.5823 49.2259 51.6734 53.134 46.8521 53.134H45.6851V59.2454L38.3003 53.134H27.646C22.8246 53.134 18.9158 49.2259 18.9155 44.4045C18.9155 39.583 22.8245 35.6741 27.646 35.6741H46.8521Z" fill="#D9D7F9"/>
<path d="M46.8521 35.6741L46.8521 34.6741H46.8521V35.6741ZM55.5825 44.4045L56.5825 44.4046V44.4045H55.5825ZM46.8521 53.134V54.134H46.8521L46.8521 53.134ZM45.6851 53.134V52.134C45.1328 52.134 44.6851 52.5817 44.6851 53.134H45.6851ZM45.6851 59.2454L45.0475 60.0158C45.346 60.2628 45.7602 60.3151 46.1108 60.1502C46.4613 59.9853 46.6851 59.6328 46.6851 59.2454H45.6851ZM38.3003 53.134L38.9378 52.3636C38.7585 52.2152 38.5331 52.134 38.3003 52.134V53.134ZM18.9155 44.4045H17.9155V44.4046L18.9155 44.4045ZM46.8521 35.6741L46.852 36.6741C51.1213 36.6741 54.5825 40.1353 54.5825 44.4045H55.5825H56.5825C56.5825 39.0307 52.2259 34.6741 46.8521 34.6741L46.8521 35.6741ZM55.5825 44.4045L54.5825 44.4045C54.5823 48.6735 51.1212 52.134 46.852 52.134L46.8521 53.134L46.8521 54.134C52.2256 54.134 56.5822 49.7783 56.5825 44.4046L55.5825 44.4045ZM46.8521 53.134V52.134H45.6851V53.134V54.134H46.8521V53.134ZM45.6851 53.134H44.6851V59.2454H45.6851H46.6851V53.134H45.6851ZM45.6851 59.2454L46.3226 58.475L38.9378 52.3636L38.3003 53.134L37.6627 53.9044L45.0475 60.0158L45.6851 59.2454ZM38.3003 53.134V52.134H27.646V53.134V54.134H38.3003V53.134ZM27.646 53.134V52.134C23.3768 52.134 19.9157 48.6735 19.9155 44.4045L18.9155 44.4045L17.9155 44.4046C17.9158 49.7783 22.2724 54.134 27.646 54.134V53.134ZM18.9155 44.4045H19.9155C19.9155 40.1353 23.3767 36.6741 27.646 36.6741V35.6741V34.6741C22.2722 34.6741 17.9155 39.0307 17.9155 44.4045H18.9155ZM27.646 35.6741V36.6741H46.8521V35.6741V34.6741H27.646V35.6741Z" fill="white"/>
<circle cx="29.2439" cy="44.7483" r="2.06573" fill="#948EBE"/>
<circle cx="37.5071" cy="44.7483" r="2.06573" fill="#948EBE"/>
<circle cx="45.7698" cy="44.7483" r="2.06573" fill="#948EBE"/>
<defs>
<clipPath id="clip0_1819_250082">
<rect width="72.7206" height="62.29" fill="white" transform="translate(17.082 22.2888)"/>
</clipPath>
</defs>
</svg>
